<svg width="18" height="19" viewBox="0 0 18 19" fill="none" xmlns="http://www.w3.org/2000/svg">
<g clip-path="url(#clip0_44_7999)">
<path d="M14.5045 11.3389L13.7545 10.0939C13.597 9.81643 13.4545 9.29144 13.4545 8.98394V7.08643C13.4545 5.32394 12.4195 3.80144 10.927 3.08894C10.537 2.39894 9.81697 1.97144 8.99197 1.97144C8.17447 1.97144 7.43947 2.41394 7.04947 3.11144C5.58697 3.83894 4.57447 5.34644 4.57447 7.08643V8.98394C4.57447 9.29144 4.43197 9.81643 4.27447 10.0864L3.51697 11.3389C3.21697 11.8414 3.14947 12.3964 3.33697 12.9064C3.51697 13.4089 3.94447 13.7989 4.49947 13.9864C5.95447 14.4814 7.48447 14.7214 9.01447 14.7214C10.5445 14.7214 12.0745 14.4814 13.5295 13.9939C14.0545 13.8214 14.4595 13.4239 14.6545 12.9064C14.8495 12.3889 14.797 11.8189 14.5045 11.3389Z" fill="white"/>
<path d="M11.1223 15.4789C10.8073 16.3489 9.97477 16.9714 8.99977 16.9714C8.40727 16.9714 7.82227 16.7314 7.40977 16.3039C7.16977 16.0789 6.98977 15.7789 6.88477 15.4714C6.98227 15.4864 7.07977 15.4939 7.18477 15.5089C7.35727 15.5314 7.53727 15.5539 7.71727 15.5689C8.14477 15.6064 8.57977 15.6289 9.01477 15.6289C9.44227 15.6289 9.86977 15.6064 10.2898 15.5689C10.4473 15.5539 10.6048 15.5464 10.7548 15.5239C10.8748 15.5089 10.9948 15.4939 11.1223 15.4789Z" fill="white"/>
</g>
<defs>
<clipPath id="clip0_44_7999">
<rect width="18" height="18" fill="white" transform="translate(0 0.471436)"/>
</clipPath>
</defs>
</svg>
