<svg width="208" height="95" viewBox="0 0 208 95" fill="none" xmlns="http://www.w3.org/2000/svg">
<path d="M206.512 91.5C206.512 91.7692 206.731 91.9875 207 91.9875C207.269 91.9875 207.488 91.7692 207.488 91.5H206.512ZM10.15 91.5C10.15 92.9359 11.3141 94.1 12.75 94.1C14.1859 94.1 15.35 92.9359 15.35 91.5C15.35 90.064 14.1859 88.9 12.75 88.9C11.3141 88.9 10.15 90.064 10.15 91.5ZM3.75 1.2375H204V0.2625H3.75V1.2375ZM206.512 3.75V91.5H207.488V3.75H206.512ZM1.2375 88.5V3.75H0.2625V88.5H1.2375ZM12.75 91.0125H3.75V91.9875H12.75V91.0125ZM0.2625 88.5C0.2625 90.4261 1.82391 91.9875 3.75 91.9875V91.0125C2.36239 91.0125 1.2375 89.8876 1.2375 88.5H0.2625ZM204 1.2375C205.388 1.2375 206.512 2.36238 206.512 3.75H207.488C207.488 1.82391 205.926 0.2625 204 0.2625V1.2375ZM3.75 0.2625C1.82391 0.2625 0.2625 1.82391 0.2625 3.75H1.2375C1.2375 2.36239 2.36238 1.2375 3.75 1.2375V0.2625Z" fill="#BB6BD9"/>
</svg>
