<svg width="208" height="95" viewBox="0 0 208 95" fill="none" xmlns="http://www.w3.org/2000/svg">
<path d="M206.512 92C206.512 92.2692 206.731 92.4875 207 92.4875C207.269 92.4875 207.488 92.2692 207.488 92H206.512ZM173.65 92C173.65 93.4359 174.814 94.6 176.25 94.6C177.686 94.6 178.85 93.4359 178.85 92C178.85 90.564 177.686 89.4 176.25 89.4C174.814 89.4 173.65 90.564 173.65 92ZM3.75 1.7375H204V0.7625H3.75V1.7375ZM206.512 4.25V92H207.488V4.25H206.512ZM1.2375 89V4.25H0.2625V89H1.2375ZM176.25 91.5125H3.75V92.4875H176.25V91.5125ZM0.2625 89C0.2625 90.9261 1.82391 92.4875 3.75 92.4875V91.5125C2.36238 91.5125 1.2375 90.3876 1.2375 89H0.2625ZM204 1.7375C205.388 1.7375 206.512 2.86238 206.512 4.25H207.488C207.488 2.32391 205.926 0.7625 204 0.7625V1.7375ZM3.75 0.7625C1.82391 0.7625 0.2625 2.32391 0.2625 4.25H1.2375C1.2375 2.86239 2.36238 1.7375 3.75 1.7375V0.7625Z" fill="#F2994A"/>
</svg>
