<svg width="17" height="17" viewBox="0 0 17 17" fill="none" xmlns="http://www.w3.org/2000/svg">
<path d="M11.7421 3.21125V2.1875C11.7421 1.91844 11.519 1.69531 11.2499 1.69531C10.9808 1.69531 10.7577 1.91844 10.7577 2.1875V3.17187H6.49209V2.1875C6.49209 1.91844 6.26897 1.69531 5.99991 1.69531C5.73084 1.69531 5.50772 1.91844 5.50772 2.1875V3.21125C3.73584 3.37531 2.87616 4.43187 2.74491 6.00031C2.73178 6.19062 2.88928 6.34812 3.07303 6.34812H14.1768C14.3671 6.34812 14.5246 6.18406 14.5049 6.00031C14.3737 4.43187 13.514 3.37531 11.7421 3.21125Z" fill="#0C1E33"/>
<path d="M13.875 7.33249H3.375C3.01406 7.33249 2.71875 7.6278 2.71875 7.98874V12.0312C2.71875 14 3.70312 15.3125 6 15.3125H11.25C13.5469 15.3125 14.5312 14 14.5312 12.0312V7.98874C14.5312 7.6278 14.2359 7.33249 13.875 7.33249ZM6.79406 12.8253C6.72844 12.8844 6.65625 12.9303 6.5775 12.9631C6.49875 12.9959 6.41344 13.0156 6.32812 13.0156C6.24281 13.0156 6.1575 12.9959 6.07875 12.9631C6 12.9303 5.92781 12.8844 5.86219 12.8253C5.74406 12.7006 5.67187 12.53 5.67187 12.3594C5.67187 12.1887 5.74406 12.0181 5.86219 11.8934C5.92781 11.8344 6 11.7884 6.07875 11.7556C6.23625 11.69 6.42 11.69 6.5775 11.7556C6.65625 11.7884 6.72844 11.8344 6.79406 11.8934C6.91219 12.0181 6.98437 12.1887 6.98437 12.3594C6.98437 12.53 6.91219 12.7006 6.79406 12.8253ZM6.93187 10.3119C6.89906 10.3906 6.85312 10.4628 6.79406 10.5284C6.72844 10.5875 6.65625 10.6334 6.5775 10.6662C6.49875 10.6991 6.41344 10.7187 6.32812 10.7187C6.24281 10.7187 6.1575 10.6991 6.07875 10.6662C6 10.6334 5.92781 10.5875 5.86219 10.5284C5.80312 10.4628 5.75719 10.3906 5.72437 10.3119C5.69156 10.2331 5.67187 10.1478 5.67187 10.0625C5.67187 9.97718 5.69156 9.89186 5.72437 9.81311C5.75719 9.73436 5.80312 9.66218 5.86219 9.59655C5.92781 9.53749 6 9.49155 6.07875 9.45874C6.23625 9.39311 6.42 9.39311 6.5775 9.45874C6.65625 9.49155 6.72844 9.53749 6.79406 9.59655C6.85312 9.66218 6.89906 9.73436 6.93187 9.81311C6.96469 9.89186 6.98437 9.97718 6.98437 10.0625C6.98437 10.1478 6.96469 10.2331 6.93187 10.3119ZM9.09094 10.5284C9.02531 10.5875 8.95312 10.6334 8.87437 10.6662C8.79562 10.6991 8.71031 10.7187 8.625 10.7187C8.53969 10.7187 8.45437 10.6991 8.37562 10.6662C8.29687 10.6334 8.22469 10.5875 8.15906 10.5284C8.04094 10.4037 7.96875 10.2331 7.96875 10.0625C7.96875 9.89186 8.04094 9.72124 8.15906 9.59655C8.22469 9.53749 8.29687 9.49155 8.37562 9.45874C8.53312 9.38655 8.71687 9.38655 8.87437 9.45874C8.95312 9.49155 9.02531 9.53749 9.09094 9.59655C9.20906 9.72124 9.28125 9.89186 9.28125 10.0625C9.28125 10.2331 9.20906 10.4037 9.09094 10.5284Z" fill="#0C1E33"/>
</svg>
