<svg width="18" height="19" viewBox="0 0 18 19" fill="none" xmlns="http://www.w3.org/2000/svg">
<path d="M12.1425 2H5.8575C3.1275 2 1.5 3.6275 1.5 6.3575V12.635C1.5 15.3725 3.1275 17 5.8575 17H12.135C14.865 17 16.4925 15.3725 16.4925 12.6425V6.3575C16.5 3.6275 14.8725 2 12.1425 2ZM12.66 9.1475C12.66 9.44 12.4275 9.6725 12.135 9.6725C11.8425 9.6725 11.61 9.44 11.61 9.1475V9.0125L9.57 11.0525C9.4575 11.165 9.3075 11.2175 9.15 11.2025C8.9925 11.1875 8.85 11.105 8.7675 10.97L8.0025 9.83L6.2175 11.615C6.1125 11.72 5.985 11.765 5.85 11.765C5.715 11.765 5.58 11.7125 5.4825 11.615C5.28 11.4125 5.28 11.0825 5.4825 10.8725L7.7175 8.6375C7.83 8.525 7.98 8.4725 8.1375 8.4875C8.295 8.5025 8.4375 8.585 8.52 8.72L9.285 9.86L10.8675 8.2775H10.7325C10.44 8.2775 10.2075 8.045 10.2075 7.7525C10.2075 7.46 10.44 7.2275 10.7325 7.2275H12.1275C12.195 7.2275 12.2625 7.2425 12.33 7.265C12.4575 7.3175 12.5625 7.4225 12.615 7.55C12.645 7.6175 12.6525 7.685 12.6525 7.7525V9.1475H12.66Z" fill="white"/>
</svg>
