<svg width="18" height="19" viewBox="0 0 18 19" fill="none" xmlns="http://www.w3.org/2000/svg">
<path d="M15.375 12.5V14.375C15.375 15.8225 14.1975 17 12.75 17H5.25C3.8025 17 2.625 15.8225 2.625 14.375V13.8875C2.625 12.71 3.585 11.75 4.7625 11.75H14.625C15.0375 11.75 15.375 12.0875 15.375 12.5Z" fill="white"/>
<path d="M11.625 2H6.375C3.375 2 2.625 2.75 2.625 5.75V11.435C3.195 10.9325 3.945 10.625 4.7625 10.625H14.625C15.0375 10.625 15.375 10.2875 15.375 9.875V5.75C15.375 2.75 14.625 2 11.625 2ZM9.75 8.5625H6C5.6925 8.5625 5.4375 8.3075 5.4375 8C5.4375 7.6925 5.6925 7.4375 6 7.4375H9.75C10.0575 7.4375 10.3125 7.6925 10.3125 8C10.3125 8.3075 10.0575 8.5625 9.75 8.5625ZM12 5.9375H6C5.6925 5.9375 5.4375 5.6825 5.4375 5.375C5.4375 5.0675 5.6925 4.8125 6 4.8125H12C12.3075 4.8125 12.5625 5.0675 12.5625 5.375C12.5625 5.6825 12.3075 5.9375 12 5.9375Z" fill="white"/>
</svg>
