<svg width="18" height="19" viewBox="0 0 18 19" fill="none" xmlns="http://www.w3.org/2000/svg">
<path d="M12.5627 3.38045V2.21045C12.5627 1.90295 12.3077 1.64795 12.0002 1.64795C11.6927 1.64795 11.4377 1.90295 11.4377 2.21045V3.33545H6.56267V2.21045C6.56267 1.90295 6.30767 1.64795 6.00017 1.64795C5.69267 1.64795 5.43767 1.90295 5.43767 2.21045V3.38045C3.41267 3.56795 2.43017 4.77545 2.28017 6.56795C2.26517 6.78545 2.44517 6.96545 2.65517 6.96545H15.3452C15.5627 6.96545 15.7427 6.77795 15.7202 6.56795C15.5702 4.77545 14.5877 3.56795 12.5627 3.38045Z" fill="white"/>
<path d="M14.25 11.9604C12.5925 11.9604 11.25 13.3029 11.25 14.9604C11.25 15.5229 11.4075 16.0554 11.685 16.5054C12.2025 17.3754 13.155 17.9604 14.25 17.9604C15.345 17.9604 16.2975 17.3754 16.815 16.5054C17.0925 16.0554 17.25 15.5229 17.25 14.9604C17.25 13.3029 15.9075 11.9604 14.25 11.9604ZM15.8025 14.6379L14.205 16.1154C14.1 16.2129 13.9575 16.2654 13.8225 16.2654C13.68 16.2654 13.5375 16.2129 13.425 16.1004L12.6825 15.3579C12.465 15.1404 12.465 14.7804 12.6825 14.5629C12.9 14.3454 13.26 14.3454 13.4775 14.5629L13.8375 14.9229L15.0375 13.8129C15.2625 13.6029 15.6225 13.6179 15.8325 13.8429C16.0425 14.0679 16.0275 14.4204 15.8025 14.6379Z" fill="white"/>
<path d="M15 8.09045H3C2.5875 8.09045 2.25 8.42795 2.25 8.84045V13.4605C2.25 15.7105 3.375 17.2105 6 17.2105H9.6975C10.215 17.2105 10.575 16.708 10.41 16.2205C10.26 15.7855 10.1325 15.3055 10.1325 14.9605C10.1325 12.688 11.985 10.8355 14.2575 10.8355C14.475 10.8355 14.6925 10.8505 14.9025 10.888C15.3525 10.9555 15.7575 10.603 15.7575 10.153V8.84795C15.75 8.42795 15.4125 8.09045 15 8.09045ZM6.9075 14.368C6.765 14.503 6.57 14.5855 6.375 14.5855C6.18 14.5855 5.985 14.503 5.8425 14.368C5.7075 14.2255 5.625 14.0305 5.625 13.8355C5.625 13.6405 5.7075 13.4455 5.8425 13.303C5.9175 13.2355 5.9925 13.183 6.09 13.1455C6.3675 13.0255 6.6975 13.093 6.9075 13.303C7.0425 13.4455 7.125 13.6405 7.125 13.8355C7.125 14.0305 7.0425 14.2255 6.9075 14.368ZM6.9075 11.743C6.87 11.773 6.8325 11.803 6.795 11.833C6.75 11.863 6.705 11.8855 6.66 11.9005C6.615 11.923 6.57 11.938 6.525 11.9455C6.4725 11.953 6.42 11.9605 6.375 11.9605C6.18 11.9605 5.985 11.878 5.8425 11.743C5.7075 11.6005 5.625 11.4055 5.625 11.2105C5.625 11.0155 5.7075 10.8205 5.8425 10.678C6.015 10.5055 6.2775 10.423 6.525 10.4755C6.57 10.483 6.615 10.498 6.66 10.5205C6.705 10.5355 6.75 10.558 6.795 10.588C6.8325 10.618 6.87 10.648 6.9075 10.678C7.0425 10.8205 7.125 11.0155 7.125 11.2105C7.125 11.4055 7.0425 11.6005 6.9075 11.743ZM9.5325 11.743C9.39 11.878 9.195 11.9605 9 11.9605C8.805 11.9605 8.61 11.878 8.4675 11.743C8.3325 11.6005 8.25 11.4055 8.25 11.2105C8.25 11.0155 8.3325 10.8205 8.4675 10.678C8.7525 10.4005 9.255 10.4005 9.5325 10.678C9.6675 10.8205 9.75 11.0155 9.75 11.2105C9.75 11.4055 9.6675 11.6005 9.5325 11.743Z" fill="white"/>
</svg>
