<svg width="18" height="19" viewBox="0 0 18 19" fill="none" xmlns="http://www.w3.org/2000/svg">
<path d="M10.7618 1.98621H7.23684C6.45684 1.98621 5.81934 2.61621 5.81934 3.39621V4.10121C5.81934 4.88121 6.44934 5.51121 7.22934 5.51121H10.7618C11.5418 5.51121 12.1718 4.88121 12.1718 4.10121V3.39621C12.1793 2.61621 11.5418 1.98621 10.7618 1.98621Z" fill="white"/>
<path d="M12.9303 4.10119C12.9303 5.29369 11.9553 6.26869 10.7628 6.26869H7.23777C6.04527 6.26869 5.07027 5.29369 5.07027 4.10119C5.07027 3.68119 4.62027 3.41869 4.24527 3.61369C3.18777 4.17619 2.46777 5.29369 2.46777 6.57619V13.6337C2.46777 15.4787 3.97527 16.9862 5.82027 16.9862H12.1803C14.0253 16.9862 15.5328 15.4787 15.5328 13.6337V6.57619C15.5328 5.29369 14.8128 4.17619 13.7553 3.61369C13.3803 3.41869 12.9303 3.68119 12.9303 4.10119ZM9.28527 13.1987H6.00027C5.69277 13.1987 5.43777 12.9437 5.43777 12.6362C5.43777 12.3287 5.69277 12.0737 6.00027 12.0737H9.28527C9.59277 12.0737 9.84777 12.3287 9.84777 12.6362C9.84777 12.9437 9.59277 13.1987 9.28527 13.1987ZM11.2503 10.1987H6.00027C5.69277 10.1987 5.43777 9.94369 5.43777 9.63619C5.43777 9.32869 5.69277 9.07369 6.00027 9.07369H11.2503C11.5578 9.07369 11.8128 9.32869 11.8128 9.63619C11.8128 9.94369 11.5578 10.1987 11.2503 10.1987Z" fill="white"/>
</svg>
