<svg width="18" height="19" viewBox="0 0 18 19" fill="none" xmlns="http://www.w3.org/2000/svg">
<path d="M15.375 12.7664V14.6414C15.375 16.0889 14.1975 17.2664 12.75 17.2664H5.25C3.8025 17.2664 2.625 16.0889 2.625 14.6414V14.1539C2.625 12.9764 3.585 12.0164 4.7625 12.0164H14.625C15.0375 12.0164 15.375 12.3539 15.375 12.7664Z" fill="white"/>
<path d="M11.625 2.26636H6.375C3.375 2.26636 2.625 3.01636 2.625 6.01636V11.7014C3.195 11.1989 3.945 10.8914 4.7625 10.8914H14.625C15.0375 10.8914 15.375 10.5539 15.375 10.1414V6.01636C15.375 3.01636 14.625 2.26636 11.625 2.26636ZM9.75 8.82886H6C5.6925 8.82886 5.4375 8.57386 5.4375 8.26636C5.4375 7.95886 5.6925 7.70386 6 7.70386H9.75C10.0575 7.70386 10.3125 7.95886 10.3125 8.26636C10.3125 8.57386 10.0575 8.82886 9.75 8.82886ZM12 6.20386H6C5.6925 6.20386 5.4375 5.94886 5.4375 5.64136C5.4375 5.33386 5.6925 5.07886 6 5.07886H12C12.3075 5.07886 12.5625 5.33386 12.5625 5.64136C12.5625 5.94886 12.3075 6.20386 12 6.20386Z" fill="white"/>
</svg>
