<svg width="17" height="17" viewBox="0 0 17 17" fill="none" xmlns="http://www.w3.org/2000/svg">
<path d="M14.9443 4.01784V11.8206C14.9443 12.4572 14.4259 13.0413 13.7893 13.12L13.5859 13.1463C12.5096 13.2906 10.9937 13.7369 9.77309 14.2488C9.34652 14.426 8.87402 14.1044 8.87402 13.6385V4.51002C8.87402 4.26721 9.01184 4.04409 9.2284 3.92596C10.4293 3.27627 12.2471 2.69877 13.4809 2.59377H13.5203C14.3078 2.59377 14.9443 3.23034 14.9443 4.01784Z" fill="white"/>
<path d="M7.535 3.92596C6.33406 3.27627 4.51625 2.69877 3.2825 2.59377H3.23656C2.44906 2.59377 1.8125 3.23034 1.8125 4.01784V11.8206C1.8125 12.4572 2.33094 13.0413 2.9675 13.12L3.17094 13.1463C4.24719 13.2906 5.76312 13.7369 6.98375 14.2488C7.41031 14.426 7.88281 14.1044 7.88281 13.6385V4.51002C7.88281 4.26065 7.75156 4.04409 7.535 3.92596Z" fill="white"/>
</svg>
