<svg width="18" height="18" viewBox="0 0 18 18" fill="none" xmlns="http://www.w3.org/2000/svg">
<path d="M16.5 3.63748V12.555C16.5 13.2825 15.9075 13.95 15.18 14.04L14.9475 14.07C13.7175 14.235 11.985 14.745 10.59 15.33C10.1025 15.5325 9.5625 15.165 9.5625 14.6325V4.19998C9.5625 3.92248 9.72 3.66748 9.9675 3.53248C11.34 2.78998 13.4175 2.12998 14.8275 2.00998H14.8725C15.7725 2.00998 16.5 2.73748 16.5 3.63748Z" fill="white"/>
<path d="M8.03219 3.53248C6.65969 2.78998 4.58219 2.12998 3.17219 2.00998H3.11969C2.21969 2.00998 1.49219 2.73748 1.49219 3.63748V12.555C1.49219 13.2825 2.08469 13.95 2.81219 14.04L3.04469 14.07C4.27469 14.235 6.00719 14.745 7.40219 15.33C7.88969 15.5325 8.42969 15.165 8.42969 14.6325V4.19998C8.42969 3.91498 8.27969 3.66748 8.03219 3.53248ZM3.74969 5.80498H5.43719C5.74469 5.80498 5.99969 6.05998 5.99969 6.36748C5.99969 6.68248 5.74469 6.92998 5.43719 6.92998H3.74969C3.44219 6.92998 3.18719 6.68248 3.18719 6.36748C3.18719 6.05998 3.44219 5.80498 3.74969 5.80498ZM5.99969 9.17998H3.74969C3.44219 9.17998 3.18719 8.93248 3.18719 8.61748C3.18719 8.30998 3.44219 8.05498 3.74969 8.05498H5.99969C6.30719 8.05498 6.56219 8.30998 6.56219 8.61748C6.56219 8.93248 6.30719 9.17998 5.99969 9.17998Z" fill="white"/>
</svg>
