<svg width="19" height="19" viewBox="0 0 19 19" fill="none" xmlns="http://www.w3.org/2000/svg">
<path d="M16.75 4.38748V13.305C16.75 14.0325 16.1575 14.7 15.43 14.79L15.1975 14.82C13.9675 14.985 12.235 15.495 10.84 16.08C10.3525 16.2825 9.8125 15.915 9.8125 15.3825V4.94998C9.8125 4.67248 9.97 4.41748 10.2175 4.28248C11.59 3.53998 13.6675 2.87998 15.0775 2.75998H15.1225C16.0225 2.75998 16.75 3.48748 16.75 4.38748Z" fill="#0C1E33"/>
<path d="M8.28219 4.28248C6.90969 3.53998 4.83219 2.87998 3.42219 2.75998H3.36969C2.46969 2.75998 1.74219 3.48748 1.74219 4.38748V13.305C1.74219 14.0325 2.33469 14.7 3.06219 14.79L3.29469 14.82C4.52469 14.985 6.25719 15.495 7.65219 16.08C8.13969 16.2825 8.67969 15.915 8.67969 15.3825V4.94998C8.67969 4.66498 8.52969 4.41748 8.28219 4.28248ZM3.99969 6.55498H5.68719C5.99469 6.55498 6.24969 6.80998 6.24969 7.11748C6.24969 7.43248 5.99469 7.67998 5.68719 7.67998H3.99969C3.69219 7.67998 3.43719 7.43248 3.43719 7.11748C3.43719 6.80998 3.69219 6.55498 3.99969 6.55498ZM6.24969 9.92998H3.99969C3.69219 9.92998 3.43719 9.68248 3.43719 9.36748C3.43719 9.05998 3.69219 8.80498 3.99969 8.80498H6.24969C6.55719 8.80498 6.81219 9.05998 6.81219 9.36748C6.81219 9.68248 6.55719 9.92998 6.24969 9.92998Z" fill="#0C1E33"/>
</svg>
