<svg width="18" height="19" viewBox="0 0 18 19" fill="none" xmlns="http://www.w3.org/2000/svg">
<path d="M11.1977 2.375V6.8C11.1977 7.13 10.8077 7.295 10.5677 7.0775L9.25523 5.87C9.11273 5.735 8.88773 5.735 8.74523 5.87L7.43273 7.07C7.19273 7.295 6.80273 7.1225 6.80273 6.8V2.375C6.80273 2.165 6.96773 2 7.17773 2H10.8227C11.0327 2 11.1977 2.165 11.1977 2.375Z" fill="white"/>
<path d="M12.735 2.04501C12.5175 2.01501 12.3225 2.20251 12.3225 2.42001V6.93501C12.3225 7.50501 11.985 8.02251 11.46 8.25501C10.935 8.48001 10.3275 8.38251 9.9075 7.99251L9.255 7.39251C9.1125 7.25751 8.895 7.25751 8.745 7.39251L8.0925 7.99251C7.8225 8.24751 7.47 8.37501 7.1175 8.37501C6.9225 8.37501 6.7275 8.33751 6.54 8.25501C6.015 8.02251 5.6775 7.50501 5.6775 6.93501V2.42001C5.6775 2.20251 5.4825 2.01501 5.265 2.04501C3.165 2.30751 2.25 3.72501 2.25 5.75001V13.25C2.25 15.5 3.375 17 6 17H12C14.625 17 15.75 15.5 15.75 13.25V5.75001C15.75 3.72501 14.835 2.30751 12.735 2.04501ZM13.125 14.5625H6.75C6.4425 14.5625 6.1875 14.3075 6.1875 14C6.1875 13.6925 6.4425 13.4375 6.75 13.4375H13.125C13.4325 13.4375 13.6875 13.6925 13.6875 14C13.6875 14.3075 13.4325 14.5625 13.125 14.5625ZM13.125 11.5625H9.9375C9.63 11.5625 9.375 11.3075 9.375 11C9.375 10.6925 9.63 10.4375 9.9375 10.4375H13.125C13.4325 10.4375 13.6875 10.6925 13.6875 11C13.6875 11.3075 13.4325 11.5625 13.125 11.5625Z" fill="white"/>
</svg>
