<svg width="19" height="19" viewBox="0 0 19 19" fill="none" xmlns="http://www.w3.org/2000/svg">
<path d="M11.0118 2.25H7.48684C6.70684 2.25 6.06934 2.88 6.06934 3.66V4.365C6.06934 5.145 6.69934 5.775 7.47934 5.775H11.0118C11.7918 5.775 12.4218 5.145 12.4218 4.365V3.66C12.4293 2.88 11.7918 2.25 11.0118 2.25Z" fill="#0C1E33"/>
<path d="M13.1803 4.36498C13.1803 5.55748 12.2053 6.53248 11.0128 6.53248H7.48777C6.29527 6.53248 5.32027 5.55748 5.32027 4.36498C5.32027 3.94498 4.87027 3.68248 4.49527 3.87748C3.43777 4.43998 2.71777 5.55748 2.71777 6.83998V13.8975C2.71777 15.7425 4.22527 17.25 6.07027 17.25H12.4303C14.2753 17.25 15.7828 15.7425 15.7828 13.8975V6.83998C15.7828 5.55748 15.0628 4.43998 14.0053 3.87748C13.6303 3.68248 13.1803 3.94498 13.1803 4.36498ZM9.53527 13.4625H6.25027C5.94277 13.4625 5.68777 13.2075 5.68777 12.9C5.68777 12.5925 5.94277 12.3375 6.25027 12.3375H9.53527C9.84277 12.3375 10.0978 12.5925 10.0978 12.9C10.0978 13.2075 9.84277 13.4625 9.53527 13.4625ZM11.5003 10.4625H6.25027C5.94277 10.4625 5.68777 10.2075 5.68777 9.89998C5.68777 9.59248 5.94277 9.33748 6.25027 9.33748H11.5003C11.8078 9.33748 12.0628 9.59248 12.0628 9.89998C12.0628 10.2075 11.8078 10.4625 11.5003 10.4625Z" fill="#0C1E33"/>
</svg>
