<svg width="18" height="19" viewBox="0 0 18 19" fill="none" xmlns="http://www.w3.org/2000/svg">
<path d="M16.125 8.67499V3.57499C16.125 2.44999 15.645 1.99999 14.4525 1.99999H11.4225C10.23 1.99999 9.75 2.44999 9.75 3.57499V8.67499C9.75 9.79999 10.23 10.25 11.4225 10.25H14.4525C15.645 10.25 16.125 9.79999 16.125 8.67499Z" fill="white"/>
<path d="M8.25 10.325V15.425C8.25 16.55 7.77 17 6.5775 17H3.5475C2.355 17 1.875 16.55 1.875 15.425V10.325C1.875 9.19999 2.355 8.74999 3.5475 8.74999H6.5775C7.77 8.74999 8.25 9.19999 8.25 10.325Z" fill="white"/>
<path d="M16.125 15.425V13.325C16.125 12.2 15.645 11.75 14.4525 11.75H11.4225C10.23 11.75 9.75 12.2 9.75 13.325V15.425C9.75 16.55 10.23 17 11.4225 17H14.4525C15.645 17 16.125 16.55 16.125 15.425Z" fill="white"/>
<path d="M8.25 5.67499V3.57499C8.25 2.44999 7.77 1.99999 6.5775 1.99999H3.5475C2.355 1.99999 1.875 2.44999 1.875 3.57499V5.67499C1.875 6.79999 2.355 7.24999 3.5475 7.24999H6.5775C7.77 7.24999 8.25 6.79999 8.25 5.67499Z" fill="white"/>
</svg>
