<svg width="18" height="19" viewBox="0 0 18 19" fill="none" xmlns="http://www.w3.org/2000/svg">
<path d="M12.1425 2.04224H5.8575C3.1275 2.04224 1.5 3.66974 1.5 6.39974V12.6772C1.5 15.4147 3.1275 17.0422 5.8575 17.0422H12.135C14.865 17.0422 16.4925 15.4147 16.4925 12.6847V6.39974C16.5 3.66974 14.8725 2.04224 12.1425 2.04224ZM12.66 9.18973C12.66 9.48223 12.4275 9.71473 12.135 9.71473C11.8425 9.71473 11.61 9.48223 11.61 9.18973V9.05474L9.57 11.0947C9.4575 11.2072 9.3075 11.2597 9.15 11.2447C8.9925 11.2297 8.85 11.1472 8.7675 11.0122L8.0025 9.87223L6.2175 11.6572C6.1125 11.7622 5.985 11.8072 5.85 11.8072C5.715 11.8072 5.58 11.7547 5.4825 11.6572C5.28 11.4547 5.28 11.1247 5.4825 10.9147L7.7175 8.67974C7.83 8.56724 7.98 8.51474 8.1375 8.52974C8.295 8.54473 8.4375 8.62724 8.52 8.76224L9.285 9.90223L10.8675 8.31974H10.7325C10.44 8.31974 10.2075 8.08724 10.2075 7.79474C10.2075 7.50224 10.44 7.26974 10.7325 7.26974H12.1275C12.195 7.26974 12.2625 7.28474 12.33 7.30724C12.4575 7.35974 12.5625 7.46474 12.615 7.59224C12.645 7.65974 12.6525 7.72724 12.6525 7.79474V9.18973H12.66Z" fill="white"/>
</svg>
