<svg width="18" height="18" viewBox="0 0 18 18" fill="none" xmlns="http://www.w3.org/2000/svg">
<path d="M15.6752 7.38752L16.1177 14.805C16.1327 15.0075 16.0352 15.1425 15.9827 15.2025C15.9227 15.27 15.7952 15.375 15.5852 15.375H13.5377L15.1577 7.38752H15.6752ZM16.5002 4.50002L16.4927 4.51502C16.5077 4.69502 16.4927 4.88252 16.4477 5.07002L10.9202 15.2175C10.7402 15.975 10.0652 16.5 9.28516 16.5H15.5852C16.5527 16.5 17.3177 15.6825 17.2427 14.715L16.5002 4.50002Z" fill="white"/>
<path d="M8.58719 1.68002C8.66219 1.38002 8.47469 1.07252 8.17469 0.997516C7.87469 0.930016 7.56719 1.11002 7.49219 1.41002L7.11719 2.96252H8.27219L8.58719 1.68002Z" fill="white"/>
<path d="M13.5377 1.65751C13.6052 1.35001 13.4102 1.05751 13.1027 0.99001C12.8027 0.92251 12.5027 1.11751 12.4352 1.42501L12.0977 2.97751H13.2527L13.5377 1.65751Z" fill="white"/>
<path d="M16.3648 3.99752C16.1173 3.39752 15.5323 2.97002 14.8123 2.97002H13.2523L12.8323 4.91252C12.7723 5.17502 12.5398 5.35502 12.2848 5.35502C12.2473 5.35502 12.2023 5.35502 12.1648 5.34002C11.8648 5.27252 11.6698 4.97252 11.7298 4.67252L12.0973 2.96252H8.27231L7.79981 4.91252C7.73981 5.16752 7.50732 5.34002 7.25232 5.34002C7.20732 5.34002 7.16231 5.33252 7.11731 5.32502C6.81732 5.25002 6.62981 4.95002 6.70481 4.64252L7.10981 2.95502H5.58732C4.85231 2.95502 4.19982 3.43502 3.98232 4.14002L0.824816 14.3025C0.494816 15.39 1.29732 16.5 2.42982 16.5H12.2848C13.0648 16.5 13.7398 15.975 13.9198 15.2175L16.4473 5.07002C16.4923 4.88252 16.5073 4.69502 16.4923 4.51502C16.4773 4.33502 16.4398 4.15502 16.3648 3.99752ZM11.0248 12.5625H5.02482C4.71731 12.5625 4.46232 12.3075 4.46232 12C4.46232 11.6925 4.71731 11.4375 5.02482 11.4375H11.0248C11.3323 11.4375 11.5873 11.6925 11.5873 12C11.5873 12.3075 11.3323 12.5625 11.0248 12.5625ZM11.7748 9.56252H5.77482C5.46731 9.56252 5.21232 9.30752 5.21232 9.00002C5.21232 8.69252 5.46731 8.43752 5.77482 8.43752H11.7748C12.0823 8.43752 12.3373 8.69252 12.3373 9.00002C12.3373 9.30752 12.0823 9.56252 11.7748 9.56252Z" fill="white"/>
</svg>
