<svg width="18" height="19" viewBox="0 0 18 19" fill="none" xmlns="http://www.w3.org/2000/svg">
<path d="M12.6 1.97144H10.65C8.25 1.97144 6.75 3.47144 6.75 5.87143V8.90893H11.4375C11.745 8.90893 12 9.16393 12 9.47143C12 9.77893 11.745 10.0339 11.4375 10.0339H6.75V13.0714C6.75 15.4714 8.25 16.9714 10.65 16.9714H12.5925C14.9925 16.9714 16.4925 15.4714 16.4925 13.0714V5.87143C16.5 3.47144 15 1.97144 12.6 1.97144Z" fill="white"/>
<path d="M3.42008 8.90906L4.97258 7.35656C5.08508 7.24406 5.13758 7.10156 5.13758 6.95906C5.13758 6.81656 5.08508 6.66656 4.97258 6.56156C4.75508 6.34406 4.39508 6.34406 4.17758 6.56156L1.66508 9.07406C1.44758 9.29156 1.44758 9.65156 1.66508 9.86906L4.17758 12.3816C4.39508 12.5991 4.75508 12.5991 4.97258 12.3816C5.19008 12.1641 5.19008 11.8041 4.97258 11.5866L3.42008 10.0341H6.75008V8.90906H3.42008Z" fill="white"/>
</svg>
