<svg width="20" height="21" viewBox="0 0 20 21" fill="none" xmlns="http://www.w3.org/2000/svg">
<path d="M10.3003 17.1741C10.5235 17.2261 10.544 17.5184 10.3265 17.5909L9.04279 18.0134C5.81717 19.0534 4.11904 18.184 3.07092 14.9584L2.03092 11.749C0.990917 8.52342 1.85217 6.81717 5.07779 5.77717L5.56704 5.61514C5.86919 5.51508 6.16222 5.81776 6.07468 6.12377C6.02204 6.3078 5.97176 6.50102 5.92279 6.70342L5.12654 10.1078C4.23279 13.9347 5.54092 16.0472 9.36779 16.9572L10.3003 17.1741Z" fill="white"/>
<path d="M13.9498 3.56715L12.5929 3.25027C9.87917 2.6084 8.26229 3.13652 7.31167 5.10277C7.06792 5.5984 6.87292 6.19965 6.71042 6.89027L5.91417 10.2946C5.11792 13.6909 6.16604 15.3646 9.55417 16.169L10.9192 16.494C11.3904 16.6078 11.8292 16.6809 12.2354 16.7134C14.7704 16.9571 16.1192 15.7709 16.8017 12.8378L17.5979 9.44152C18.3942 6.04527 17.3542 4.3634 13.9498 3.56715ZM12.4223 11.7896C12.3492 12.0659 12.1054 12.2446 11.8292 12.2446C11.7804 12.2446 11.7317 12.2365 11.6748 12.2284L9.31042 11.6271C8.98542 11.5459 8.79042 11.2128 8.87167 10.8878C8.95292 10.5628 9.28604 10.3678 9.61104 10.449L11.9754 11.0503C12.3085 11.1315 12.5035 11.4646 12.4223 11.7896ZM14.8029 9.04339C14.7298 9.31964 14.486 9.49839 14.2098 9.49839C14.161 9.49839 14.1123 9.49027 14.0554 9.48214L10.1148 8.48277C9.78979 8.40152 9.59479 8.0684 9.67604 7.7434C9.75729 7.4184 10.0904 7.2234 10.4154 7.30465L14.356 8.30402C14.6892 8.37714 14.8842 8.71027 14.8029 9.04339Z" fill="white"/>
</svg>
