<svg width="18" height="19" viewBox="0 0 18 19" fill="none" xmlns="http://www.w3.org/2000/svg">
<path d="M16.5 4.23578V13.1533C16.5 13.8808 15.9075 14.5483 15.18 14.6383L14.9475 14.6683C13.7175 14.8333 11.985 15.3433 10.59 15.9283C10.1025 16.1308 9.5625 15.7633 9.5625 15.2308V4.79828C9.5625 4.52078 9.72 4.26578 9.9675 4.13078C11.34 3.38828 13.4175 2.72828 14.8275 2.60828H14.8725C15.7725 2.60828 16.5 3.33578 16.5 4.23578Z" fill="white"/>
<path d="M8.03219 4.13078C6.65969 3.38828 4.58219 2.72828 3.17219 2.60828H3.11969C2.21969 2.60828 1.49219 3.33578 1.49219 4.23578V13.1533C1.49219 13.8808 2.08469 14.5483 2.81219 14.6383L3.04469 14.6683C4.27469 14.8333 6.00719 15.3433 7.40219 15.9283C7.88969 16.1308 8.42969 15.7633 8.42969 15.2308V4.79828C8.42969 4.51328 8.27969 4.26578 8.03219 4.13078ZM3.74969 6.40328H5.43719C5.74469 6.40328 5.99969 6.65828 5.99969 6.96578C5.99969 7.28078 5.74469 7.52828 5.43719 7.52828H3.74969C3.44219 7.52828 3.18719 7.28078 3.18719 6.96578C3.18719 6.65828 3.44219 6.40328 3.74969 6.40328ZM5.99969 9.77828H3.74969C3.44219 9.77828 3.18719 9.53078 3.18719 9.21578C3.18719 8.90828 3.44219 8.65328 3.74969 8.65328H5.99969C6.30719 8.65328 6.56219 8.90828 6.56219 9.21578C6.56219 9.53078 6.30719 9.77828 5.99969 9.77828Z" fill="white"/>
</svg>
