<svg width="17" height="17" viewBox="0 0 17 17" fill="none" xmlns="http://www.w3.org/2000/svg">
<path d="M8.625 2.1875C6.90562 2.1875 5.50781 3.58531 5.50781 5.30469C5.50781 6.99125 6.82687 8.35625 8.54625 8.41531C8.59875 8.40875 8.65125 8.40875 8.69062 8.41531C8.70375 8.41531 8.71031 8.41531 8.72344 8.41531C8.73 8.41531 8.73 8.41531 8.73656 8.41531C10.4166 8.35625 11.7356 6.99125 11.7422 5.30469C11.7422 3.58531 10.3444 2.1875 8.625 2.1875Z" fill="#0C1E33"/>
<path d="M11.9586 10.1609C10.1277 8.9403 7.14176 8.9403 5.29769 10.1609C4.46426 10.7187 4.00488 11.4734 4.00488 12.2806C4.00488 13.0878 4.46426 13.8359 5.29113 14.3872C6.20988 15.004 7.41738 15.3125 8.62488 15.3125C9.83238 15.3125 11.0399 15.004 11.9586 14.3872C12.7855 13.8294 13.2449 13.0812 13.2449 12.2675C13.2383 11.4603 12.7855 10.7122 11.9586 10.1609Z" fill="#0C1E33"/>
</svg>
