<svg width="17" height="17" viewBox="0 0 17 17" fill="none" xmlns="http://www.w3.org/2000/svg">
<path d="M14.2822 6.42031C13.5931 3.38844 10.9485 2.02344 8.62534 2.02344C8.62534 2.02344 8.62534 2.02344 8.61877 2.02344C6.30221 2.02344 3.65096 3.38187 2.9619 6.41375C2.19409 9.8 4.26784 12.6678 6.14471 14.4725C6.84034 15.1419 7.73284 15.4766 8.62534 15.4766C9.51784 15.4766 10.4103 15.1419 11.0994 14.4725C12.9763 12.6678 15.05 9.80656 14.2822 6.42031ZM8.62534 9.70812C7.48346 9.70812 6.55815 8.78281 6.55815 7.64094C6.55815 6.49906 7.48346 5.57375 8.62534 5.57375C9.76721 5.57375 10.6925 6.49906 10.6925 7.64094C10.6925 8.78281 9.76721 9.70812 8.62534 9.70812Z" fill="#0C1E33"/>
</svg>
