<svg width="18" height="18" viewBox="0 0 18 18" fill="none" xmlns="http://www.w3.org/2000/svg">
<path d="M10.7618 1.50003H7.23684C6.45684 1.50003 5.81934 2.13003 5.81934 2.91003V3.61503C5.81934 4.39503 6.44934 5.02503 7.22934 5.02503H10.7618C11.5418 5.02503 12.1718 4.39503 12.1718 3.61503V2.91003C12.1793 2.13003 11.5418 1.50003 10.7618 1.50003Z" fill="white"/>
<path d="M12.9303 3.61505C12.9303 4.80755 11.9553 5.78255 10.7628 5.78255H7.23777C6.04527 5.78255 5.07027 4.80755 5.07027 3.61505C5.07027 3.19505 4.62027 2.93255 4.24527 3.12755C3.18777 3.69005 2.46777 4.80755 2.46777 6.09004V13.1475C2.46777 14.9925 3.97527 16.5 5.82027 16.5H12.1803C14.0253 16.5 15.5328 14.9925 15.5328 13.1475V6.09004C15.5328 4.80755 14.8128 3.69005 13.7553 3.12755C13.3803 2.93255 12.9303 3.19505 12.9303 3.61505ZM9.28527 12.7125H6.00027C5.69277 12.7125 5.43777 12.4575 5.43777 12.15C5.43777 11.8425 5.69277 11.5875 6.00027 11.5875H9.28527C9.59277 11.5875 9.84777 11.8425 9.84777 12.15C9.84777 12.4575 9.59277 12.7125 9.28527 12.7125ZM11.2503 9.71254H6.00027C5.69277 9.71254 5.43777 9.45754 5.43777 9.15004C5.43777 8.84255 5.69277 8.58754 6.00027 8.58754H11.2503C11.5578 8.58754 11.8128 8.84255 11.8128 9.15004C11.8128 9.45754 11.5578 9.71254 11.2503 9.71254Z" fill="white"/>
</svg>
