<svg width="18" height="19" viewBox="0 0 18 19" fill="none" xmlns="http://www.w3.org/2000/svg">
<path d="M15.6752 7.76177L16.1177 15.1793C16.1327 15.3818 16.0352 15.5168 15.9827 15.5768C15.9227 15.6443 15.7952 15.7493 15.5852 15.7493H13.5377L15.1577 7.76177H15.6752ZM16.5002 4.87427L16.4927 4.88927C16.5077 5.06927 16.4927 5.25677 16.4477 5.44427L10.9202 15.5918C10.7402 16.3493 10.0652 16.8743 9.28516 16.8743H15.5852C16.5527 16.8743 17.3177 16.0568 17.2427 15.0893L16.5002 4.87427Z" fill="white"/>
<path d="M8.58719 2.05431C8.66219 1.75431 8.47469 1.44681 8.17469 1.37181C7.87469 1.30431 7.56719 1.48431 7.49219 1.78431L7.11719 3.33681H8.27219L8.58719 2.05431Z" fill="white"/>
<path d="M13.5377 2.03181C13.6052 1.72431 13.4102 1.43181 13.1027 1.36431C12.8027 1.29681 12.5027 1.49181 12.4352 1.79931L12.0977 3.35181H13.2527L13.5377 2.03181Z" fill="white"/>
<path d="M16.3648 4.37172C16.1173 3.77172 15.5323 3.34422 14.8123 3.34422H13.2523L12.8323 5.28672C12.7723 5.54922 12.5398 5.72922 12.2848 5.72922C12.2473 5.72922 12.2023 5.72922 12.1648 5.71422C11.8648 5.64672 11.6698 5.34672 11.7298 5.04672L12.0973 3.33672H8.27231L7.79981 5.28672C7.73981 5.54172 7.50732 5.71422 7.25232 5.71422C7.20732 5.71422 7.16231 5.70672 7.11731 5.69922C6.81732 5.62422 6.62981 5.32422 6.70481 5.01672L7.10981 3.32922H5.58732C4.85231 3.32922 4.19982 3.80922 3.98232 4.51422L0.824816 14.6767C0.494816 15.7642 1.29732 16.8742 2.42982 16.8742H12.2848C13.0648 16.8742 13.7398 16.3492 13.9198 15.5917L16.4473 5.44422C16.4923 5.25672 16.5073 5.06922 16.4923 4.88922C16.4773 4.70922 16.4398 4.52922 16.3648 4.37172ZM11.0248 12.9367H5.02482C4.71731 12.9367 4.46232 12.6817 4.46232 12.3742C4.46232 12.0667 4.71731 11.8117 5.02482 11.8117H11.0248C11.3323 11.8117 11.5873 12.0667 11.5873 12.3742C11.5873 12.6817 11.3323 12.9367 11.0248 12.9367ZM11.7748 9.93672H5.77482C5.46731 9.93672 5.21232 9.68172 5.21232 9.37422C5.21232 9.06672 5.46731 8.81172 5.77482 8.81172H11.7748C12.0823 8.81172 12.3373 9.06672 12.3373 9.37422C12.3373 9.68172 12.0823 9.93672 11.7748 9.93672Z" fill="white"/>
</svg>
