<svg width="18" height="19" viewBox="0 0 18 19" fill="none" xmlns="http://www.w3.org/2000/svg">
<path d="M15.075 7.38651C13.7175 7.38651 13.1625 6.42651 13.8375 5.24901C14.2275 4.56651 13.995 3.69651 13.3125 3.30651L12.015 2.56401C11.4225 2.21151 10.6575 2.42151 10.305 3.01401L10.2225 3.15651C9.5475 4.33401 8.4375 4.33401 7.755 3.15651L7.6725 3.01401C7.335 2.42151 6.57 2.21151 5.9775 2.56401L4.68 3.30651C3.9975 3.69651 3.765 4.57401 4.155 5.25651C4.8375 6.42651 4.2825 7.38651 2.925 7.38651C2.145 7.38651 1.5 8.02401 1.5 8.81151V10.1315C1.5 10.9115 2.1375 11.5565 2.925 11.5565C4.2825 11.5565 4.8375 12.5165 4.155 13.694C3.765 14.3765 3.9975 15.2465 4.68 15.6365L5.9775 16.379C6.57 16.7315 7.335 16.5215 7.6875 15.929L7.77 15.7865C8.445 14.609 9.555 14.609 10.2375 15.7865L10.32 15.929C10.6725 16.5215 11.4375 16.7315 12.03 16.379L13.3275 15.6365C14.01 15.2465 14.2425 14.369 13.8525 13.694C13.17 12.5165 13.725 11.5565 15.0825 11.5565C15.8625 11.5565 16.5075 10.919 16.5075 10.1315V8.81151C16.5 8.03151 15.8625 7.38651 15.075 7.38651ZM9 11.909C7.6575 11.909 6.5625 10.814 6.5625 9.47151C6.5625 8.12901 7.6575 7.03401 9 7.03401C10.3425 7.03401 11.4375 8.12901 11.4375 9.47151C11.4375 10.814 10.3425 11.909 9 11.909Z" fill="white"/>
</svg>
