<svg width="17" height="17" viewBox="0 0 17 17" fill="none" xmlns="http://www.w3.org/2000/svg">
<path d="M8.625 2.1875C5.00906 2.1875 2.0625 5.13406 2.0625 8.75C2.0625 12.3659 5.00906 15.3125 8.625 15.3125C12.2409 15.3125 15.1875 12.3659 15.1875 8.75C15.1875 5.13406 12.2409 2.1875 8.625 2.1875ZM11.4797 11.0928C11.3878 11.2503 11.2237 11.3356 11.0531 11.3356C10.9678 11.3356 10.8825 11.3159 10.8037 11.2634L8.76937 10.0494C8.26406 9.7475 7.89 9.08469 7.89 8.50062V5.81C7.89 5.54094 8.11312 5.31781 8.38219 5.31781C8.65125 5.31781 8.87437 5.54094 8.87437 5.81V8.50062C8.87437 8.73687 9.07125 9.08469 9.27469 9.20281L11.3091 10.4169C11.5453 10.5547 11.6241 10.8566 11.4797 11.0928Z" fill="#0C1E33"/>
</svg>
