<svg width="18" height="19" viewBox="0 0 18 19" fill="none" xmlns="http://www.w3.org/2000/svg">
<path d="M11.1977 2.5293V6.9543C11.1977 7.2843 10.8077 7.4493 10.5677 7.2318L9.25523 6.0243C9.11273 5.8893 8.88773 5.8893 8.74523 6.0243L7.43273 7.2243C7.19273 7.4493 6.80273 7.2768 6.80273 6.9543V2.5293C6.80273 2.3193 6.96773 2.1543 7.17773 2.1543H10.8227C11.0327 2.1543 11.1977 2.3193 11.1977 2.5293Z" fill="white"/>
<path d="M12.735 2.19933C12.5175 2.16933 12.3225 2.35683 12.3225 2.57433V7.08933C12.3225 7.65933 11.985 8.17683 11.46 8.40933C10.935 8.63433 10.3275 8.53683 9.9075 8.14683L9.255 7.54683C9.1125 7.41183 8.895 7.41183 8.745 7.54683L8.0925 8.14683C7.8225 8.40183 7.47 8.52933 7.1175 8.52933C6.9225 8.52933 6.7275 8.49183 6.54 8.40933C6.015 8.17683 5.6775 7.65933 5.6775 7.08933V2.57433C5.6775 2.35683 5.4825 2.16933 5.265 2.19933C3.165 2.46183 2.25 3.87933 2.25 5.90433V13.4043C2.25 15.6543 3.375 17.1543 6 17.1543H12C14.625 17.1543 15.75 15.6543 15.75 13.4043V5.90433C15.75 3.87933 14.835 2.46183 12.735 2.19933ZM13.125 14.7168H6.75C6.4425 14.7168 6.1875 14.4618 6.1875 14.1543C6.1875 13.8468 6.4425 13.5918 6.75 13.5918H13.125C13.4325 13.5918 13.6875 13.8468 13.6875 14.1543C13.6875 14.4618 13.4325 14.7168 13.125 14.7168ZM13.125 11.7168H9.9375C9.63 11.7168 9.375 11.4618 9.375 11.1543C9.375 10.8468 9.63 10.5918 9.9375 10.5918H13.125C13.4325 10.5918 13.6875 10.8468 13.6875 11.1543C13.6875 11.4618 13.4325 11.7168 13.125 11.7168Z" fill="white"/>
</svg>
