<svg width="20" height="21" viewBox="0 0 20 21" fill="none" xmlns="http://www.w3.org/2000/svg">
<path d="M10.3003 16.9651C10.5235 17.017 10.544 17.3094 10.3265 17.3819L9.04279 17.8044C5.81717 18.8444 4.11904 17.975 3.07092 14.7494L2.03092 11.54C0.990917 8.31437 1.85217 6.60812 5.07779 5.56812L5.56704 5.4061C5.86919 5.30604 6.16222 5.60871 6.07468 5.91472C6.02204 6.09876 5.97176 6.29198 5.92279 6.49437L5.12654 9.89875C4.23279 13.7256 5.54092 15.8381 9.36779 16.7481L10.3003 16.9651Z" fill="white"/>
<path d="M13.9498 3.35813L12.5929 3.04126C9.87917 2.39938 8.26229 2.92751 7.31167 4.89376C7.06792 5.38938 6.87292 5.99063 6.71042 6.68126L5.91417 10.0856C5.11792 13.4819 6.16604 15.1556 9.55417 15.96L10.9192 16.285C11.3904 16.3988 11.8292 16.4719 12.2354 16.5044C14.7704 16.7481 16.1192 15.5619 16.8017 12.6288L17.5979 9.2325C18.3942 5.83626 17.3542 4.15438 13.9498 3.35813ZM12.4223 11.5806C12.3492 11.8569 12.1054 12.0356 11.8292 12.0356C11.7804 12.0356 11.7317 12.0275 11.6748 12.0194L9.31042 11.4181C8.98542 11.3369 8.79042 11.0038 8.87167 10.6788C8.95292 10.3538 9.28604 10.1588 9.61104 10.24L11.9754 10.8413C12.3085 10.9225 12.5035 11.2556 12.4223 11.5806ZM14.8029 8.83438C14.7298 9.11063 14.486 9.28938 14.2098 9.28938C14.161 9.28938 14.1123 9.28125 14.0554 9.27313L10.1148 8.27376C9.78979 8.19251 9.59479 7.85938 9.67604 7.53438C9.75729 7.20938 10.0904 7.01438 10.4154 7.09563L14.356 8.09501C14.6892 8.16813 14.8842 8.50125 14.8029 8.83438Z" fill="white"/>
</svg>
